<svg xmlns="http://www.w3.org/2000/svg" xmlns:xlink="http://www.w3.org/1999/xlink" viewBox="0,0,256,256" width="24px" height="24px" fill-rule="nonzero"><g fill="#ffffff" fill-rule="nonzero" stroke="none" stroke-width="1" stroke-linecap="butt" stroke-linejoin="miter" stroke-miterlimit="10" stroke-dasharray="" stroke-dashoffset="0" font-family="none" font-weight="none" font-size="none" text-anchor="none" style="mix-blend-mode: normal"><g transform="scale(10.66667,10.66667)"><path d="M12,2.00781c-5.523,0 -10,4.477 -10,10c0,5.523 4.477,10 10,10c5.523,0 10,-4.477 10,-10c0,-5.522 -4.477,-10 -10,-10zM12,3.50781c4.687,0 8.5,3.813 8.5,8.5c0,4.51414 -3.54008,8.20758 -7.98828,8.47461v-6.98047h2.74023c0.27048,0.00383 0.52206,-0.13828 0.65842,-0.3719c0.13635,-0.23362 0.13635,-0.52257 0,-0.75619c-0.13635,-0.23362 -0.38794,-0.37573 -0.65842,-0.3719h-2.74023v-1.24609c0,-0.70002 0.54998,-1.25 1.25,-1.25h1.49023c0.27048,0.00383 0.52206,-0.13828 0.65842,-0.3719c0.13635,-0.23362 0.13635,-0.52257 0,-0.75619c-0.13635,-0.23362 -0.38794,-0.37573 -0.65842,-0.3719h-1.49023c-1.50998,0 -2.75,1.24002 -2.75,2.75v1.24609h-1.25977c-0.27048,-0.00383 -0.52206,0.13828 -0.65842,0.3719c-0.13635,0.23362 -0.13635,0.52257 0,0.75619c0.13635,0.23362 0.38794,0.37573 0.65842,0.3719h1.25977v6.94531c-4.22215,-0.49207 -7.51172,-4.08738 -7.51172,-8.43945c0,-4.687 3.813,-8.5 8.5,-8.5z"></path></g></g></svg>